<svg xmlns="http://www.w3.org/2000/svg" width="160" height="47" viewBox="0 0 160 47" fill="none">
<path d="M16.5801 24.8108C12.6002 22.5024 11.8989 19.0056 14.4863 16.2982C14.6809 16.0947 14.5573 15.7561 14.2775 15.7242C11.9522 15.4591 9.73079 14.8042 7.92924 13.7595L3.50054 11.1911C3.39557 11.1301 3.26563 11.1301 3.16066 11.1911L0.1698 12.9262C-0.0565999 13.0578 -0.0565999 13.3861 0.1698 13.5178L4.81071 16.2092C5.03711 16.3409 5.03711 16.6692 4.81071 16.8009L0.1698 19.4923C-0.0565999 19.624 -0.0565999 19.9523 0.1698 20.084L4.81071 22.7754C5.03711 22.9071 5.03711 23.2354 4.81071 23.3671L0.1698 26.0585C-0.0565999 26.1902 -0.0565999 26.5185 0.1698 26.6502L4.81071 29.3416C5.03711 29.4733 5.03711 29.8016 4.81071 29.9333L0.1698 32.6247C-0.0565999 32.7564 -0.0565999 33.0847 0.1698 33.2164L22.5227 46.18C22.6276 46.241 22.7576 46.241 22.8625 46.18L37.6347 37.6126C37.8611 37.481 37.8611 37.1526 37.6347 37.021L16.5807 24.8103L16.5801 24.8108Z" fill="#002147"/>
<path d="M40.4298 16.2931L45.0708 13.6016C45.2972 13.4699 45.2972 13.1416 45.0708 13.01L22.7179 0.045741C22.6129 -0.015247 22.483 -0.015247 22.378 0.045741L7.38171 8.74309C7.15531 8.87476 7.15531 9.20307 7.38171 9.33473L11.4705 11.7059C14.1555 13.263 18.418 13.356 21.263 11.9806C21.2715 11.9766 21.28 11.972 21.288 11.9669L22.5902 11.2117C22.6782 11.161 22.7707 11.1142 22.8677 11.0726C22.879 11.0675 22.8904 11.0618 22.9012 11.0555L23.1446 10.9141C23.4357 10.7454 23.3318 10.2991 22.9965 10.2775L18.3641 9.97824C16.9847 9.88875 15.9832 9.16887 16.1285 8.36918C16.2737 7.5695 17.5096 6.99382 18.8895 7.08273L29.8588 7.79122C29.8753 7.79236 29.8912 7.7935 29.9076 7.79521C29.9252 7.79635 29.9428 7.79749 29.9604 7.7992C29.9791 7.80091 29.9979 7.80319 30.0172 7.8049C30.0364 7.80661 30.0563 7.80889 30.0756 7.81117C30.0807 7.81174 30.0858 7.81231 30.0909 7.81288C30.1488 7.82086 30.2072 7.82884 30.2651 7.83739C30.2731 7.83853 30.2816 7.83967 30.2895 7.84138C30.3139 7.84537 30.3377 7.84993 30.3616 7.85449C30.3735 7.85677 30.3854 7.85905 30.3968 7.86133C30.4206 7.86589 30.4438 7.87102 30.4677 7.87615C30.479 7.87843 30.4904 7.88128 30.5017 7.88356C30.5256 7.88926 30.5494 7.89439 30.5727 7.90066C30.5829 7.90351 30.5931 7.90579 30.6039 7.90864C30.6283 7.91491 30.6521 7.92118 30.6759 7.92802C30.6844 7.9303 30.6929 7.93315 30.702 7.93543C30.727 7.94284 30.7525 7.95025 30.7769 7.95766C30.7803 7.9588 30.7837 7.95994 30.7871 7.96107C30.8666 7.98615 30.9443 8.01408 31.0192 8.04429C31.0311 8.04885 31.043 8.05398 31.055 8.05854C31.072 8.06595 31.089 8.07279 31.1055 8.08077C31.1208 8.08761 31.1355 8.09445 31.1503 8.10129C31.1645 8.10813 31.1792 8.11497 31.1934 8.12181C31.2116 8.13036 31.2297 8.13948 31.2473 8.1486C31.2587 8.1543 31.2694 8.16 31.2802 8.1657C31.3092 8.18109 31.3375 8.19648 31.3653 8.21244C31.3931 8.2284 31.4198 8.24493 31.4459 8.26146C31.4561 8.26773 31.4658 8.27456 31.4754 8.28083C31.4907 8.29109 31.5066 8.30135 31.5214 8.31218C31.5333 8.32073 31.5452 8.32871 31.5566 8.33726C31.5685 8.34581 31.5798 8.35436 31.5912 8.36291C31.6042 8.3726 31.6167 8.38286 31.6292 8.39255C31.6377 8.39939 31.6456 8.40623 31.6536 8.41307C31.7064 8.45696 31.7552 8.50256 31.7983 8.54873C31.8 8.55044 31.8017 8.55215 31.8034 8.55386C31.817 8.56868 31.8301 8.58292 31.8425 8.59774C31.8465 8.6023 31.851 8.60743 31.855 8.61199C31.8669 8.62624 31.8777 8.63992 31.8885 8.65417C31.893 8.65987 31.8976 8.66614 31.9015 8.67184C31.9118 8.68552 31.9214 8.6992 31.9311 8.71345C31.9356 8.71972 31.9396 8.72656 31.9435 8.73283C31.9526 8.74651 31.9611 8.76019 31.9696 8.77444C31.9736 8.78128 31.977 8.78755 31.981 8.79439C31.9889 8.80864 31.9969 8.82232 32.0037 8.83657C32.0065 8.84227 32.0088 8.84797 32.0116 8.85367C32.0269 8.88559 32.0406 8.9175 32.0525 8.94999C32.0536 8.95341 32.0553 8.95683 32.0565 8.96025C32.0604 8.97165 32.0638 8.98305 32.0672 8.99502C32.0706 9.00585 32.074 9.01611 32.0769 9.02694C32.0797 9.0372 32.082 9.04746 32.0843 9.05829C32.0865 9.06741 32.0888 9.0771 32.0905 9.08622L33.3127 15.4478C33.4665 16.248 32.4735 16.9645 31.0947 17.0489C30.3082 17.0967 29.5655 16.9286 29.0446 16.6265C28.6525 16.3991 28.3858 16.0964 28.32 15.7527L27.7696 12.8869C27.7254 12.6566 27.4683 12.5386 27.2657 12.656L25.311 13.7897C25.1096 13.9066 24.9024 14.0183 24.6908 14.1249L20.0873 16.7946C17.2622 18.4328 17.2769 21.1071 20.1197 22.7561L41.6725 35.2558C41.664 35.2655 41.6549 35.2746 41.6458 35.2843L45.0696 33.2985C45.296 33.1668 45.296 32.8385 45.0696 32.7068L40.4287 30.0154C40.2023 29.8837 40.2023 29.5554 40.4287 29.4237L45.0696 26.7323C45.296 26.6006 45.296 26.2723 45.0696 26.1406L40.4287 23.4492C40.2023 23.3175 40.2023 22.9892 40.4287 22.8575L45.0696 20.1661C45.296 20.0344 45.296 19.7061 45.0696 19.5745L40.4287 16.883C40.2023 16.7513 40.2023 16.423 40.4287 16.2914L40.4298 16.2931Z" fill="#002147"/>
<path d="M69.6639 17.2562H66.5293C66.3677 17.2562 66.2546 17.3854 66.2546 17.5309V26.9184C66.2546 28.6957 67.1433 29.0835 68.2582 29.0835C68.646 29.0835 69.0176 29.035 69.2761 28.9704C69.4215 28.9381 69.5669 29.035 69.5993 29.1805L70.2294 32.105C70.2617 32.2504 70.1809 32.3958 70.0355 32.4281C69.5346 32.5735 68.7429 32.7513 67.6927 32.7836C64.3804 32.8805 61.8275 31.1517 61.8436 27.6293V17.5147C61.8436 17.3531 61.7144 17.24 61.569 17.24H59.4846C59.3231 17.24 59.21 17.1108 59.21 16.9653V14.1216C59.21 13.96 59.3392 13.8469 59.4846 13.8469H61.569C61.7305 13.8469 61.8436 13.7177 61.8436 13.5723V9.66213C61.8436 9.50055 61.9729 9.38745 62.1183 9.38745H65.9638C66.1254 9.38745 66.2385 9.51671 66.2385 9.66213V13.5723C66.2385 13.7338 66.3677 13.8469 66.5132 13.8469H69.6477C69.8093 13.8469 69.9224 13.9762 69.9224 14.1216V16.9653C69.9224 17.1269 69.7931 17.24 69.6477 17.24L69.6639 17.2562Z" fill="#002147"/>
<path d="M73.105 27.29C73.105 23.0729 76.5789 21.9903 80.1982 21.6025C83.4943 21.2471 84.8192 21.1824 84.8192 19.9221V19.8414C84.8192 17.9994 83.7044 16.9491 81.6524 16.9491C79.6004 16.9491 78.3885 17.9348 77.8877 19.1143C77.8392 19.2274 77.7099 19.3082 77.5807 19.292L74.0098 18.7911C73.8321 18.7588 73.7352 18.5811 73.7836 18.4195C74.85 15.2203 77.8069 13.5884 81.6039 13.5884C85.1747 13.5884 89.1979 15.0749 89.1979 20.0191V32.2504C89.1979 32.4119 89.0687 32.525 88.9233 32.525H85.2555C85.0939 32.525 84.9808 32.3958 84.9808 32.2504V30.0529C84.9808 30.0529 84.9323 29.956 84.8839 29.956C84.8839 29.956 84.8192 29.9721 84.8031 30.0045C83.9952 31.5556 82.234 32.8967 79.3418 32.8967C75.771 32.8967 73.0889 30.9416 73.0889 27.2738L73.105 27.29ZM84.8354 25.8358V23.8C84.8354 23.8 84.7546 23.6868 84.7061 23.7192C83.9629 24.1231 81.8786 24.3978 80.796 24.5432C78.8248 24.8179 77.3545 25.5288 77.3545 27.2254C77.3545 28.9219 78.6632 29.6813 80.5052 29.6813C83.155 29.6813 84.8354 27.9201 84.8354 25.8358Z" fill="#002147"/>
<path d="M94.4978 7.61011H98.3433C98.5048 7.61011 98.6179 7.73937 98.6179 7.88479V16.8199C98.6179 16.8199 98.6664 16.933 98.7311 16.933C98.7311 16.933 98.8118 16.9169 98.828 16.8684C99.5066 15.5273 100.896 13.5884 104.144 13.5884C108.458 13.5884 111.867 16.9653 111.867 23.2021C111.867 29.439 108.571 32.8482 104.16 32.8482C101.009 32.8482 99.5551 31.0224 98.8442 29.6652C98.8118 29.6167 98.7634 29.5844 98.6987 29.5844H98.6503C98.6503 29.5844 98.5533 29.6329 98.5533 29.6813V32.2504C98.5533 32.4119 98.4241 32.5251 98.2786 32.5251H94.5139C94.3524 32.5251 94.2393 32.3958 94.2393 32.2504V7.88479C94.2393 7.72321 94.3685 7.61011 94.5139 7.61011H94.4978ZM102.932 29.2612C105.84 29.2612 107.375 26.7083 107.375 23.2021C107.375 19.696 105.873 17.2239 102.932 17.2239C99.9913 17.2239 98.5372 19.5667 98.5372 23.2021C98.5372 26.8376 100.121 29.2612 102.932 29.2612Z" fill="#002147"/>
<path d="M115.632 8.80575C115.632 7.48083 116.779 6.41443 118.185 6.41443C119.59 6.41443 120.721 7.48083 120.721 8.80575C120.721 10.1307 119.574 11.1971 118.185 11.1971C116.795 11.1971 115.632 10.1307 115.632 8.80575ZM116.246 13.8469H120.091C120.253 13.8469 120.366 13.9762 120.366 14.1216V32.2504C120.366 32.4119 120.237 32.525 120.091 32.525H116.246C116.084 32.525 115.971 32.3958 115.971 32.2504V14.1216C115.971 13.96 116.1 13.8469 116.246 13.8469Z" fill="#002147"/>
<path d="M125.198 38.8427L126.07 35.9343C126.119 35.7889 126.264 35.7081 126.409 35.7404C128.187 36.209 129.399 35.9828 130.174 33.9469L130.433 33.236C130.513 33.0421 130.513 32.832 130.433 32.622L123.889 14.2185C123.824 14.0408 123.954 13.8469 124.147 13.8469H128.219C128.348 13.8469 128.445 13.9277 128.494 14.0408L132.711 27.8717C132.711 27.8717 132.776 27.9686 132.84 27.9686C132.84 27.9686 132.953 27.9363 132.969 27.8717L137.203 14.0408C137.235 13.9277 137.348 13.8469 137.477 13.8469H141.565C141.759 13.8469 141.888 14.0408 141.824 14.2185L134.472 34.8033C133.406 37.7924 131.434 39.5536 127.993 39.5536C126.943 39.5536 126.006 39.392 125.375 39.182C125.23 39.1335 125.149 38.9881 125.198 38.8427Z" fill="#002147"/>
<path d="M143.908 27.29C143.908 23.0729 147.382 21.9903 151.001 21.6025C154.297 21.2471 155.622 21.1824 155.622 19.9221V19.8414C155.622 17.9994 154.507 16.9491 152.455 16.9491C150.403 16.9491 149.191 17.9348 148.69 19.1143C148.642 19.2274 148.513 19.3082 148.383 19.292L144.813 18.7911C144.635 18.7588 144.538 18.5811 144.586 18.4195C145.653 15.2203 148.61 13.5884 152.407 13.5884C155.977 13.5884 160.001 15.0749 160.001 20.0191V32.2504C160.001 32.4119 159.871 32.525 159.726 32.525H156.058C155.897 32.525 155.784 32.3958 155.784 32.2504V30.0529C155.784 30.0529 155.735 29.956 155.687 29.956C155.687 29.956 155.622 29.9721 155.606 30.0045C154.798 31.5556 153.037 32.8967 150.145 32.8967C146.574 32.8967 143.892 30.9416 143.892 27.2738L143.908 27.29ZM155.638 25.8358V23.8C155.638 23.8 155.557 23.6868 155.509 23.7192C154.766 24.1231 152.681 24.3978 151.599 24.5432C149.628 24.8179 148.157 25.5288 148.157 27.2254C148.157 28.9219 149.466 29.6813 151.308 29.6813C153.958 29.6813 155.638 27.9201 155.638 25.8358Z" fill="#002147"/>
</svg>